<svg width="325" height="142" viewBox="0 0 325 142" fill="none" xmlns="http://www.w3.org/2000/svg">
<path d="M76.5 109L59 125.5L62.7833 126.903C87.6686 136.13 115.641 130.266 134.725 111.821L204.863 44.0299C216.152 33.1189 232.251 28.7655 247.5 32.5L265.5 16L261.194 14.469C236.248 5.59924 208.432 11.5631 189.315 29.8805L119.131 97.1281C107.807 107.978 91.8017 112.435 76.5 109Z" fill="#007771"/>
<path d="M288.5 11H303V26L252.158 74.7084C240.491 85.8865 222.194 86.228 210.117 75.4932L200 66.5L214.5 52.5L224.395 60.5393C227.891 63.3803 232.95 63.1982 236.233 60.1131L288.5 11Z" fill="#007771"/>
<path d="M35.4999 130.062L21 129.999L21.0649 114.999L72.117 66.5115C83.8329 55.384 102.131 55.1217 114.161 65.9087L124.239 74.9457L109.679 88.8827L99.8192 80.8007C96.3349 77.9446 91.2757 78.1048 87.9791 81.1757L35.4999 130.062Z" fill="#007771"/>
<path d="M298 48L281 64C283.718 87.1011 266.508 107.758 243.296 109.255L239.085 109.527C229.309 110.158 219.601 107.509 211.5 102L186 80L171.5 94L194 115L202.726 120.863C217.504 130.791 235.872 133.794 253.042 129.088L259.916 127.203C294.034 117.851 311.999 80.4884 298 48Z" fill="#007771"/>
<path d="M26.5 93.0496L43.53 77.0816C40.8556 53.9754 58.1043 33.3513 81.3192 31.8974L85.5306 31.6336C95.3081 31.0212 105.01 33.6882 113.101 39.2122L138.56 61.2601L153.086 47.2873L130.626 26.2451L121.911 20.366C107.152 10.4095 88.7891 7.37247 71.6103 12.0467L64.7327 13.9181C30.5976 23.206 12.5619 60.535 26.5 93.0496Z" fill="#007771"/>
</svg>
